# xmcd CD database file
#
# Track frame offsets:
#	150
#	11568
#	17704
#	32649
#	40924
#	55778
#	69163
#	81165
#	86438
#	100538
#	113108
#	118233
#	124289
#	136211
#	149436
#	154489
#
# Disc length: 2216 seconds
#
# Revision: 1
# Processed by: cddbd v1.5.1PL0 Copyright (c) Steve Scherf et al.
# Submitted via: CDex 1.51
#
DISCID=d108a610
DTITLE=Various Artist - Easy Pickins
DYEAR=2003
DGENRE=Bluegrass
TTITLE0=Bill Cheatwood - Cripple Creek
TTITLE1=Lacey Phillips - Marching Jaybird
TTITLE2=Kossoy Sisters - In The Pines
TTITLE3=Red Boone - Sourwood Mountain
TTITLE4=Kossoy Sisters - Banks Of The Ohio
TTITLE5=Etta Baker - Bully Of The Town
TTITLE6=Etta Baker - John Henry
TTITLE7=Hobart Smith - Drunken Hiccups
TTITLE8=David Lindley - Johnson Boys
TTITLE9=Kossoy Sisters - I Will Never Marry
TTITLE10=Edd Presnell - Shady Grove
TTITLE11=Richard Chase - Molly Brooks
TTITLE12=Etta Baker - Railroad Bill
TTITLE13=Kossoy Sisters - Darby Ram
TTITLE14=Richard Chase - Skip To My Lou
TTITLE15=Kossoy Sisters - I'll Fly Away
EXTD=YEAR: 2003
EXTT0=
EXTT1=
EXTT2=
EXTT3=
EXTT4=
EXTT5=
EXTT6=
EXTT7=
EXTT8=
EXTT9=
EXTT10=
EXTT11=
EXTT12=
EXTT13=
EXTT14=
EXTT15=
PLAYORDER=
